<?xml version="1.0" encoding="utf-8"?>
<!-- Generator: Adobe Illustrator 26.0.1, SVG Export Plug-In . SVG Version: 6.00 Build 0)  -->
<svg version="1.1" id="Layer_1" xmlns="http://www.w3.org/2000/svg" xmlns:xlink="http://www.w3.org/1999/xlink" x="0px" y="0px"
	 viewBox="0 0 24 24" style="enable-background:new 0 0 24 24;" xml:space="preserve">
<style type="text/css">
	.st0{fill:none;}
	.st1{fill:#002554;}
</style>
<g>
	<rect y="0" class="st0" width="24" height="24"/>
</g>
<g>
	<path class="st1" d="M13,7.8c0.9-0.3,1.5-1,1.8-1.8H18l-3,7c0,1.7,1.6,3,3.5,3s3.5-1.3,3.5-3l-3-7h2V4h-6.2c-0.4-1.2-1.5-2-2.8-2
		S9.6,2.8,9.2,4H3v2h2l-3,7c0,1.7,1.6,3,3.5,3S9,14.7,9,13L6,6h3.2c0.3,0.8,1,1.5,1.8,1.8V19H2v2h20v-2h-9V7.8z M20.4,13h-3.7
		l1.9-4.4L20.4,13z M7.4,13H3.6l1.9-4.4L7.4,13z M12,6c-0.6,0-1-0.4-1-1s0.4-1,1-1s1,0.4,1,1S12.6,6,12,6z"/>
</g>
</svg>
