<?xml version="1.0" encoding="utf-8"?>
<!-- Generator: Adobe Illustrator 26.0.1, SVG Export Plug-In . SVG Version: 6.00 Build 0)  -->
<svg version="1.1" id="Layer_1" xmlns="http://www.w3.org/2000/svg" xmlns:xlink="http://www.w3.org/1999/xlink" x="0px" y="0px"
	 viewBox="0 0 24 24" style="enable-background:new 0 0 24 24;" xml:space="preserve">
<style type="text/css">
	.st0{fill:none;}
	.st1{fill:#002554;}
</style>
<rect y="0" class="st0" width="24" height="24"/>
<path class="st1" d="M19,5h-2V3H7v2H5C3.9,5,3,5.9,3,7v1c0,2.6,1.9,4.6,4.4,4.9c0.6,1.5,2,2.6,3.6,3V19H7v2h10v-2h-4v-3.1
	c1.6-0.3,3-1.5,3.6-3C19.1,12.6,21,10.6,21,8V7C21,5.9,20.1,5,19,5z M5,8V7h2v3.8C5.8,10.4,5,9.3,5,8z M19,8c0,1.3-0.8,2.4-2,2.8V7
	h2V8z"/>
</svg>
