<?xml version="1.0" encoding="utf-8"?>
<!-- Generator: Adobe Illustrator 26.0.1, SVG Export Plug-In . SVG Version: 6.00 Build 0)  -->
<svg version="1.1" id="Layer_1" xmlns="http://www.w3.org/2000/svg" xmlns:xlink="http://www.w3.org/1999/xlink" x="0px" y="0px"
	 viewBox="0 0 24 24" style="enable-background:new 0 0 24 24;" xml:space="preserve">
<style type="text/css">
	.st0{fill:none;}
	.st1{fill:#002554;}
</style>
<g>
	<rect y="0" class="st0" width="24" height="24"/>
</g>
<g>
	<g>
		<g>
			<g>
				<path class="st1" d="M16,13c3.1-2.8,6-5.4,6-7.7C22,3.5,20.5,2,18.7,2c-1,0-2,0.5-2.7,1.2C15.3,2.5,14.3,2,13.3,2
					C11.4,2,10,3.5,10,5.3C10,7.6,12.9,10.2,16,13z M13.3,4c0.4,0,0.9,0.2,1.2,0.6L16,6.3l1.5-1.8C17.8,4.2,18.3,4,18.7,4
					C19.4,4,20,4.6,20,5.3c0,1.1-2,3.2-4,5c-2-1.8-4-3.9-4-5C12,4.6,12.6,4,13.3,4z"/>
				<path class="st1" d="M19,16h-2c0-1.2-0.8-2.3-1.9-2.7L9,11H1v11h6v-1.4l7,1.9l8-2.5v-1C22,17.3,20.7,16,19,16z M3,20v-7h2v7H3z
					 M14,20.4l-7-1.9V13h1.6l5.8,2.2c0.3,0.1,0.6,0.5,0.6,0.8c0,0-2-0.1-2.3-0.2l-2.4-0.8L9.7,17l2.4,0.8c0.5,0.2,1,0.3,1.6,0.3H19
					c0.4,0,0.7,0.2,0.9,0.6L14,20.4z"/>
			</g>
		</g>
	</g>
</g>
</svg>
