<?xml version="1.0" encoding="utf-8"?>
<!-- Generator: Adobe Illustrator 26.0.1, SVG Export Plug-In . SVG Version: 6.00 Build 0)  -->
<svg version="1.1" id="Layer_1" xmlns="http://www.w3.org/2000/svg" xmlns:xlink="http://www.w3.org/1999/xlink" x="0px" y="0px"
	 viewBox="0 0 24 24" style="enable-background:new 0 0 24 24;" xml:space="preserve">
<style type="text/css">
	.st0{fill:none;}
	.st1{fill:#FE9300;}
</style>
<rect y="0" class="st0" width="24" height="24"/>
<g>
	<path class="st1" d="M19.8,7.5l-2.3-2.3c0.1-0.4,0.2-0.8,0.3-1.2C18,3.9,18,3.7,18,3.5C18,2.7,17.3,2,16.5,2c-1.6,0-3.1,0.8-4,2h-5
		C4.5,4,2,6.5,2,9.5S4.5,21,4.5,21H10v-2h2v2h5.5l1.7-5.6l2.8-0.9v-7H19.8z M13,9H8V7h5V9z M16,11c-0.6,0-1-0.4-1-1s0.4-1,1-1
		c0.5,0,1,0.4,1,1S16.5,11,16,11z"/>
</g>
</svg>
