<?xml version="1.0" encoding="utf-8"?>
<!-- Generator: Adobe Illustrator 26.0.1, SVG Export Plug-In . SVG Version: 6.00 Build 0)  -->
<svg version="1.1" id="Layer_1" xmlns="http://www.w3.org/2000/svg" xmlns:xlink="http://www.w3.org/1999/xlink" x="0px" y="0px"
	 viewBox="0 0 24 24" style="enable-background:new 0 0 24 24;" xml:space="preserve">
<style type="text/css">
	.st0{fill:none;}
	.st1{fill:#FE9300;}
</style>
<rect y="0" class="st0" width="24" height="24"/>
<path class="st1" d="M15.3,18.9c-1,1-2.1,2-3.3,3.1c-5.3-4.5-8-8.5-8-11.8C4,5.2,7.8,2,12,2c4.2,0,8,3.2,8,8.2l2.1-2.1l1.4,1.4
	L19,14l-4.5-4.5l1.4-1.4l2.1,2.1C18,6.6,15.3,4,12,4c-3.4,0-6,2.6-6,6.2c0,2.3,1.9,5.4,6,9.1c0.6-0.6,1.2-1.2,1.8-1.7
	c-0.2-0.3-0.3-0.7-0.3-1.1c0-1.4,1.1-2.5,2.5-2.5s2.5,1.1,2.5,2.5c0,1.4-1.1,2.5-2.5,2.5C15.8,19,15.5,19,15.3,18.9z"/>
</svg>
