<?xml version="1.0" encoding="utf-8"?>
<!-- Generator: Adobe Illustrator 26.0.1, SVG Export Plug-In . SVG Version: 6.00 Build 0)  -->
<svg version="1.1" id="Layer_1" xmlns="http://www.w3.org/2000/svg" xmlns:xlink="http://www.w3.org/1999/xlink" x="0px" y="0px"
	 viewBox="0 0 24 24" style="enable-background:new 0 0 24 24;" xml:space="preserve">
<style type="text/css">
	.st0{fill:none;}
	.st1{fill:#FE9300;}
</style>
<path class="st0" d="M0,0h24v24H0V0z"/>
<path class="st1" d="M12,4H5C3.3,4,2,5.3,2,7v8c0,1.7,1.3,3,3,3l-1,1v1h1l2-2h2v-5H4V6h9v2h2V7C15,5.3,13.7,4,12,4z M5,14
	c0.6,0,1,0.4,1,1s-0.4,1-1,1s-1-0.5-1-1S4.4,14,5,14z M20.6,9.7C20.4,9.3,20,9,19.6,9h-7.2c-0.5,0-0.8,0.3-1,0.7L10,13.8v5.5
	c0,0.4,0.3,0.7,0.7,0.7h0.6c0.4,0,0.7-0.4,0.7-0.8V18h8v1.2c0,0.4,0.3,0.8,0.7,0.8h0.6c0.4,0,0.7-0.3,0.7-0.7l0-1.4v-4.1
	C22,13.8,20.6,9.7,20.6,9.7z M12.4,10h7.2l1,3h-9.2C11.4,13,12.4,10,12.4,10z M12,16c-0.6,0-1-0.5-1-1s0.4-1,1-1s1,0.4,1,1
	S12.6,16,12,16z M20,16c-0.5,0-1-0.5-1-1s0.5-1,1-1s1,0.4,1,1S20.5,16,20,16z"/>
</svg>
